<?xml version="1.0" encoding="UTF-8" standalone="no"?>
<!-- Created with Inkscape (http://www.inkscape.org/) -->

<svg
   width="100mm"
   height="100mm"
   viewBox="0 0 100 100"
   version="1.1"
   id="svg1"
   xmlns="http://www.w3.org/2000/svg"
   xmlns:svg="http://www.w3.org/2000/svg">
  <defs
     id="defs1" />
  <path
     id="path2"
     style="display:inline;opacity:1;fill:none;stroke:#f2f2f2;stroke-width:3.4077"
     d="M 92.364675,50.000001 A 42.364675,37.956426 0 0 1 49.999995,87.956426 42.364675,37.956426 0 0 1 7.6353251,50.000001 42.364675,37.956426 0 0 1 49.999995,12.043574 42.364675,37.956426 0 0 1 92.364675,50.000001 Z" />
  <path
     id="text2"
     style="font-size:127.455px;font-family:'Book Antiqua';-inkscape-font-specification:'Book Antiqua';display:inline;fill:#d40000;stroke:#3f1a55;stroke-width:9.63804;stroke-dasharray:none"
     d="m 108.9729,91.749017 c -11.413,0 -20.350508,2.82358 -26.813292,8.471073 -6.462781,5.6475 -9.694388,12.91173 -9.694388,21.79288 0,5.2376 1.05434,9.63264 3.162764,13.1851 2.108426,3.50692 5.019198,6.0804 8.73186,7.72 3.712662,1.63961 10.747824,2.86918 21.106606,3.68898 1.33522,0.10926 2.49963,0.23925 3.69084,0.36589 l 10.70317,-10.63522 c -2.2145,-0.31242 -4.65441,-0.60317 -7.38111,-0.86622 -9.44208,-0.86534 -15.629811,-1.86737 -18.563273,-3.00597 -2.887624,-1.18415 -5.202068,-3.07442 -6.943811,-5.67045 -1.695908,-2.64158 -2.543914,-5.78394 -2.543914,-9.42749 0,-5.78414 2.085437,-10.52052 6.256453,-14.2096 4.21685,-3.689097 9.991915,-5.533736 17.325555,-5.533736 4.49187,0 8.75458,0.728271 12.78809,2.185699 4.07934,1.411877 6.60069,2.755807 7.56323,4.031027 0.96255,1.27525 1.4438,3.68877 1.4438,7.24123 v 5.46567 h 4.74357 c 0.0917,-7.83362 0.77926,-14.11895 2.06265,-18.855552 -4.62936,-2.003958 -9.25882,-3.48418 -13.8882,-4.440606 -4.58353,-1.001972 -9.16707,-1.502705 -13.7506,-1.502705 z M 74.596375,165.39396 c 0.03411,6.37336 -0.174454,11.88249 -0.622848,16.53994 l 5.754063,-5.71753 c -0.301879,-1.36555 -0.455573,-3.82102 -0.455573,-7.40631 v -3.4161 z"
     transform="matrix(0.51824748,0,0,0.45236693,-4.4159855,-13.714864)" />
</svg>
